<?xml version="1.0" encoding="utf-8"?>
<!-- Generator: Adobe Illustrator 26.3.1, SVG Export Plug-In . SVG Version: 6.00 Build 0)  -->
<svg version="1.1" id="Infomotion_Bildmarke" xmlns="http://www.w3.org/2000/svg" xmlns:xlink="http://www.w3.org/1999/xlink"
	 x="0px" y="0px" viewBox="0 0 203.87 203.94" style="enable-background:new 0 0 203.87 203.94;" xml:space="preserve">
<style type="text/css">
	.st0{fill:#FFFFFF;}
	.st1{fill:url(#SVGID_1_);}
</style>
<g>
	<circle class="st0" cx="101.87" cy="101.96" r="74.58"/>
	<linearGradient id="SVGID_1_" gradientUnits="userSpaceOnUse" x1="37.443" y1="139.1659" x2="166.4765" y2="64.6683">
		<stop  offset="0.3" style="stop-color:#FF5500"/>
		<stop  offset="0.3055" style="stop-color:#FF5403"/>
		<stop  offset="0.492" style="stop-color:#FF316D"/>
		<stop  offset="0.6417" style="stop-color:#FF17BA"/>
		<stop  offset="0.7476" style="stop-color:#FF07EA"/>
		<stop  offset="0.8" style="stop-color:#FF01FD"/>
	</linearGradient>
	<path class="st1" d="M42.95,102.88c0,0,1.83-11.25,11.88-11.25c15,0,17.52,30.38,17.52,30.38s-3.26-80.46,23.83-80.46
		c23.05,0,22.42,55.26,22.42,55.26s1.6-41.9,21.19-41.9c20.16,0,25.15,27.96,25.15,27.96s0.19-12.7,3.2-15.16
		c-12.41-23.96-37.43-40.33-66.27-40.33c-41.19,0-74.59,33.39-74.59,74.59c0,11.59,2.64,22.56,7.36,32.35
		C37.36,127.25,40.2,117.43,42.95,102.88z M54.71,61.14c7.56,0.03,13.67,6.18,13.64,13.74c-0.03,7.56-6.18,13.67-13.74,13.64
		c-7.56-0.03-13.67-6.18-13.64-13.74C41,67.22,47.15,61.11,54.71,61.14z M175.96,110.61c-4.29,37.12-35.82,65.94-74.09,65.94
		c-19.56,0-37.36-7.54-50.67-19.86c2.31-5,3.58-9.07,3.58-9.07c8.62,15.4,18.97,14.22,18.97,14.22
		c24.8,0.09,23.18-46.46,23.18-46.46s4.55,33.37,22.2,33.37c26.51,0,24.97-56.05,24.97-56.05c4.33,24.96,18.17,24.53,18.17,24.53
		C166.18,117.76,171.78,115.92,175.96,110.61z"/>
</g>
</svg>
